<svg width="20" height="24" viewBox="0 0 20 24" fill="none" xmlns="http://www.w3.org/2000/svg">
<path d="M4.16667 21.5476C3.70833 21.5476 3.31597 21.3558 2.98958 20.9721C2.66319 20.5885 2.5 20.1274 2.5 19.5887V7.83552C2.5 7.29683 2.66319 6.83568 2.98958 6.45207C3.31597 6.06846 3.70833 5.87665 4.16667 5.87665H5.83333C5.83333 4.52177 6.23958 3.36686 7.05208 2.41191C7.86458 1.45697 8.84722 0.979492 10 0.979492C11.1528 0.979492 12.1354 1.45697 12.9479 2.41191C13.7604 3.36686 14.1667 4.52177 14.1667 5.87665H15.8333C16.2917 5.87665 16.684 6.06846 17.0104 6.45207C17.3368 6.83568 17.5 7.29683 17.5 7.83552V19.5887C17.5 20.1274 17.3368 20.5885 17.0104 20.9721C16.684 21.3558 16.2917 21.5476 15.8333 21.5476H4.16667ZM4.16667 19.5887H15.8333V7.83552H4.16667V19.5887ZM10 13.7121C11.1528 13.7121 12.1354 13.2346 12.9479 12.2797C13.7604 11.3247 14.1667 10.1698 14.1667 8.81495H12.5C12.5 9.63114 12.2569 10.3249 11.7708 10.8962C11.2847 11.4676 10.6944 11.7532 10 11.7532C9.30556 11.7532 8.71528 11.4676 8.22917 10.8962C7.74306 10.3249 7.5 9.63114 7.5 8.81495H5.83333C5.83333 10.1698 6.23958 11.3247 7.05208 12.2797C7.86458 13.2346 8.84722 13.7121 10 13.7121ZM7.5 5.87665H12.5C12.5 5.06046 12.2569 4.36669 11.7708 3.79536C11.2847 3.22402 10.6944 2.93836 10 2.93836C9.30556 2.93836 8.71528 3.22402 8.22917 3.79536C7.74306 4.36669 7.5 5.06046 7.5 5.87665Z" fill="#DAFB52"/>
</svg>
