<svg width="21" height="25" viewBox="0 0 21 25" fill="none" xmlns="http://www.w3.org/2000/svg">
<path d="M4.375 19.5397H5.6L13.1469 10.6697L11.9219 9.22994L4.375 18.0999V19.5397ZM16.8875 9.17852L13.1687 4.85922L14.3938 3.41946C14.7292 3.02524 15.1411 2.82812 15.6297 2.82812C16.1182 2.82812 16.5302 3.02524 16.8656 3.41946L18.0906 4.85922C18.426 5.25344 18.601 5.72908 18.6156 6.28613C18.6302 6.84318 18.4698 7.31882 18.1344 7.71304L16.8875 9.17852ZM15.6187 10.6954L6.34375 21.5965H2.625V17.2258L11.9 6.3247L15.6187 10.6954ZM12.5344 9.94982L11.9219 9.22994L13.1469 10.6697L12.5344 9.94982Z" fill="white"/>
</svg>
